PathFileType	4	(X/Y/Z)	pose2sim_0-881.trc
DataRate	CameraRate	NumFrames	NumMarkers	Units	OrigDataRate	OrigDataStartFrame	OrigNumFrames
50	50	6	22	m	50	220	882
Frame#	Time	Hip			RHip			RKnee			RAnkle			RBigToe			RSmallToe			RHeel			LHip			LKnee			LAnkle			LBigToe			LSmallToe			LHeel			Neck			Head			Nose			RShoulder			RElbow			RWrist			LShoulder			LElbow			LWrist			
		X1	Y1	Z1	X2	Y2	Z2	X3	Y3	Z3	X4	Y4	Z4	X5	Y5	Z5	X6	Y6	Z6	X7	Y7	Z7	X8	Y8	Z8	X9	Y9	Z9	X10	Y10	Z10	X11	Y11	Z11	X12	Y12	Z12	X13	Y13	Z13	X14	Y14	Z14	X15	Y15	Z15	X16	Y16	Z16	X17	Y17	Z17	X18	Y18	Z18	X19	Y19	Z19	X20	Y20	Z20	X21	Y21	Z21	X22	Y22	Z22	
220	4.4	0.13501981598253449	0.980550734497536	-0.04495501757058324	0.033909911788054845	0.9644777390800967	-0.03350054062872477	0.015614294294661988	0.5129642739907501	-0.06673786557062715	0.0018925257552036634	0.08944912835803738	-0.09203209360760946	0.013807441851728023	0.044318930136382155	0.11189761885458195	-0.03677149601589131	0.03962343778443316	0.06002868225371879	0.013027281988404141	0.04654414950638189	-0.11902023356330407	0.24063328461974054	0.9612369193590768	-0.04879713571597747	0.24114145602664935	0.5110898642709775	-0.10775621830408362	0.2448450348844345	0.0851187759179149	-0.10916260392534446	0.2773783413347477	0.039555427655956904	0.07593936982485965	0.3169853191549957	0.03746203000124389	0.0182138782035715	0.23091114036202634	0.042988783090946114	-0.13908521245358246	0.15179059295288083	1.5781524192852008	-0.0747832639709985	0.15223868496124293	1.82550447500249	-0.03938512444053585	0.11749446461502909	1.7013323009010146	0.02482587279336075	-0.008672142035489213	1.4696154375892785	-0.07629986657682154	-0.07926023074350384	1.2060696373171287	0.0174078649480301	-0.17159659414290687	1.027053939204908	0.1805358715208261	0.31725633666334485	1.4656917985675284	-0.09339446077869323	0.378778922521292	1.204810238296008	-0.017911888677513872	0.4552481785996781	0.9869839609355596	0.09030923638501522
221	4.42	0.13441529263521718	0.9768458724454322	-0.053116223944118406	0.02960099477584383	0.9631840554455091	-0.051489137492654574	0.013779787097569307	0.5176107580122414	-0.07299189645254876	0.001543343635637622	0.08706027960767329	-0.09633659898765498	0.01994205318130331	0.03404524596602417	0.08734949605704098	-0.038454782352302	0.033925382116230106	0.04875676704808638	0.009288381874809437	0.044625926528927724	-0.13522547080574493	0.24070714860928094	0.9609215997030117	-0.05893824069195325	0.24271437100439444	0.5133019020669276	-0.10800567155280998	0.24529114687971848	0.08460892374468623	-0.11553997735759611	0.27470608329727597	0.035449446307053274	0.06834746852282515	0.319067286459675	0.036755592131988195	0.003621261791958598	0.2332721036303013	0.04083996239437724	-0.1485819355438071	0.1530338698460295	1.578596625736471	-0.07749168132416828	0.15393333083288	1.8276302300241696	-0.04152915855756348	0.13988218304301955	1.6988215126483037	0.06947190541383255	-0.00776129269125098	1.470937737682933	-0.06129728760719118	-0.07661194464311237	1.2106936915631072	0.01643918164137793	-0.16814709203469372	1.0164442117099337	0.15932610291447902	0.3160433687832125	1.4648421386300807	-0.0952500176602386	0.37595779322854356	1.2023068089219284	-0.02428036260018278	0.45217794996105976	0.9790674167683299	0.07033363316335811
222	4.44	0.1329328971426047	0.9763621035162681	-0.0522015735947014	0.03146331300200315	0.9623724461964449	-0.043341732294045296	0.013250597639976111	0.5192138072207421	-0.07400433818999066	0.0014503014377511565	0.08796544145405225	-0.09847540984295829	0.013697913883541447	0.03478251397240965	0.08443506657648511	-0.04156900402191427	0.03609165986635359	0.04856363670123501	0.00915850216059062	0.04528476038997219	-0.1374621112576281	0.2419681202265332	0.9589376278366807	-0.054185111850623795	0.24040636825582762	0.5177838317861692	-0.10928484148090871	0.24352069416814107	0.08406693395100041	-0.11640547220387609	0.2705604780117663	0.036626377211374316	0.07080443090547896	0.3140594823859957	0.038932438295969464	0.009783868002015491	0.2311196151163141	0.04176938927724497	-0.15198975742193963	0.15499915859175667	1.579643672877326	-0.06837513066902126	0.15550603777718902	1.8283307316986739	-0.039520436685371696	0.1406510983028704	1.6993651310098288	0.07738715376726041	-0.005143727834539885	1.4713136924158179	-0.0567463886083116	-0.07514233618187562	1.2083376080126116	0.0087453053987092	-0.163777889945861	1.0068993845451095	0.14840244069401393	0.31749623774795904	1.4627421703230916	-0.08976549560876704	0.3743694890558658	1.1999420216486614	-0.025166856274998702	0.4499701880640684	0.9741178343262179	0.05564332239302701
223	4.46	0.13567188474566633	0.9754833492305868	-0.043908973762614455	0.03234474417976884	0.961369500501032	-0.04288364734874548	0.015707295686956366	0.5153767248732879	-0.06961778598043263	0.0005742953483844342	0.08542383125169634	-0.09521700289650757	0.016996180799185433	0.03538530816289575	0.09265694544450595	-0.03906837196231981	0.035107283656289005	0.054376595608546324	0.006559461683688351	0.044385336065623116	-0.13469771815187362	0.2414716059698123	0.9594032235441147	-0.051269323176758676	0.2398455839203618	0.5153673781549977	-0.106209026629822	0.24265675958552896	0.08437390676875897	-0.11375041084789271	0.272313184160454	0.035376038124278406	0.06705149723066327	0.31515485601464094	0.037686819086190884	0.006643399333812729	0.23339769945355335	0.038976775042672177	-0.14872178044510478	0.15448015107999075	1.5790296615595623	-0.0668986045131261	0.152355783224374	1.826484854697441	-0.03132605503827434	0.13671765294450813	1.6982594263809887	0.0781858434704077	-0.005692669053539988	1.4722073837427525	-0.05439440341488153	-0.07587242137288058	1.2016617173777204	0.012242633870840774	-0.1637959837722621	0.9953054499033924	0.13650868189407472	0.3182564456454674	1.4661204826013592	-0.09161653622907429	0.37048049502688835	1.194966718900791	-0.029913496923337893	0.44607088627453606	0.9665377397175083	0.04551096963533248
224	4.48	0.13432612734426916	0.977699667784271	-0.04078332959035729	0.03292200095102803	0.9606635753801104	-0.030878753286211667	0.015774170701384576	0.5139336668681092	-0.06354819736720807	0.002400978704263773	0.089162606322656	-0.09231417980763347	0.014005109185744968	0.045792733302298834	0.10243268052174555	-0.0379822833133345	0.04176452590289612	0.05374678300522186	0.015382891463276678	0.04425952643252891	-0.12186893536202109	0.23824622138836102	0.9567936156120137	-0.04930916958340669	0.24031703954720912	0.5117650433247781	-0.10189770308869765	0.24618590674696902	0.08639768487105157	-0.11279268934873392	0.28175040971193804	0.04059179778417707	0.07136363099206473	0.3182701092946219	0.0371512380764738	0.01511661603455457	0.23147667186777818	0.04293971668457392	-0.14082138162899063	0.15522368035088388	1.5756964099964654	-0.06317729760503232	0.15674878084871094	1.8263954805124054	-0.024994601286608936	0.14999790569701912	1.696688763734342	0.08715594118435879	-0.007479611689677305	1.4703655768792565	-0.05839704872987811	-0.071840308964166	1.1976713237161947	0.01238889855793468	-0.16299506291939514	0.985323981587346	0.13916426272083826	0.32085295282202286	1.4621415789494843	-0.08043267659967242	0.373653989244942	1.1956642953860395	-0.036688422244816825	0.4399182001385464	0.9645483911295405	0.03151716412657261
225	4.5	0.13633220996012904	0.9735602131852631	-0.043948988222574495	0.035149752762140676	0.9598531165310655	-0.0409992431650064	0.015507482304459932	0.5168169502242725	-0.0679589789410299	0.001845333905245681	0.0888340728982961	-0.09827738231402142	0.015214812005899475	0.03519221316960335	0.08825317458704696	-0.037529009681671215	0.035032233802645404	0.049324553665271824	0.008235010783036208	0.046420563752045334	-0.13551762945351342	0.2414026877214844	0.9566333062043477	-0.053011930154647766	0.24045084133539488	0.5136307827145619	-0.10709469686659312	0.24475850253775303	0.08761729325580728	-0.11386610763898053	0.275755010368346	0.03535788994727489	0.06421398074217802	0.31851543640735414	0.03622368707065149	0.005170283445904135	0.2325013340802482	0.0425462925838485	-0.14850461256062436	0.1553958667672307	1.5803394334051595	-0.06168211542528724	0.1565363295445458	1.8269395802270405	-0.026520491297179885	0.14046191618243556	1.7003936481482347	0.08778476805365736	-0.004148069060086672	1.4714605468932584	-0.050078064737786775	-0.0733936329386575	1.195141483037532	0.004624860835068892	-0.15978775282092061	0.9812177787152876	0.11778708373586887	0.31868373964848373	1.4641070221970076	-0.08506805857193182	0.37117854506993153	1.1897967727235343	-0.04190095770147387	0.441664401363877	0.958393126567871	0.02297883827617836
